# xmcd
#
# Track frame offsets:
#	150
#	21545
#	35560
#	50582
#	67257
#	83592
#	100207
#	118902
#	130755
#	139040
#	150757
#	172072
#	183092
#	197050
#
# Disc length: 2784 seconds
#
# Revision: 1
# Processed by: cddbd v1.5.2PL0 Copyright (c) Steve Scherf et al.
# Submitted via: audiograbber 1.83.01
#
DISCID=c10ade0e
DTITLE=Various Artist - Rounder Records January 2001 New Release Sampler
DYEAR=2001
DGENRE=Blues
TTITLE0=Theryl "Houseman" de'Clouet - Where You Gettin' It?
TTITLE1=Theryl "Houseman" de'Clouet - I Get Lifted
TTITLE2=Sleepy LaBeef - Manish Boy
TTITLE3=Sleepy LaBeef - Rip It Up
TTITLE4=Michael Rose - A Storm Is Coming
TTITLE5=Michael Rose - Big Thing
TTITLE6=I Roy - I Man TIme
TTITLE7=I Roy - Knotty Down Deh
TTITLE8=Ziggy Marley and the Melody Makers - Arthur Theme Song
TTITLE9=Raffi - Something in My Shoe
TTITLE10=Dónal Lunny - The Kesh Jig/Give Us a Drink of Water/Famous Ballymote
TTITLE11=Dónal Lunny - The Ballymum Regatta
TTITLE12=May Fortune and chorus - Tim bwau-o
TTITLE13=Raoul Grivalliers and group - Abraham soulagé mwen
EXTD=
EXTT0=
EXTT1=
EXTT2=
EXTT3=
EXTT4=
EXTT5=
EXTT6=
EXTT7=
EXTT8=
EXTT9=
EXTT10=
EXTT11=
EXTT12=
EXTT13=
PLAYORDER=
